<svg width="502" height="99" viewBox="0 0 502 99" fill="none" xmlns="http://www.w3.org/2000/svg">
<path d="M54.2 96.255L34.22 61.83H15.86V96.255H0.335V1.755H38.135C46.775 1.755 54.095 4.77 60.065 10.8C66.125 16.74 69.155 24.03 69.155 32.67C69.155 38.79 67.37 44.4 63.8 49.5C60.32 54.51 55.745 58.155 50.09 60.435L71.555 96.255H54.2ZM15.86 16.335V47.925H38.135C42.365 47.925 45.935 46.365 48.845 43.245C51.755 40.125 53.21 36.315 53.21 31.815C53.21 27.315 51.755 23.52 48.845 20.43C45.935 17.25 42.365 15.66 38.135 15.66H15.86V16.335Z" fill="black"/>
<path d="M90.5984 68.715C91.6784 73.845 94.1534 77.805 98.0234 80.595C101.893 83.295 106.618 84.645 112.198 84.645C119.938 84.645 125.743 81.855 129.613 76.275L141.628 83.295C134.968 93.105 125.113 98.01 112.063 98.01C101.083 98.01 92.2184 94.68 85.4684 88.02C78.7184 81.27 75.3434 72.765 75.3434 62.505C75.3434 52.425 78.6734 44.01 85.3334 37.26C91.9934 30.42 100.543 27 110.983 27C120.883 27 128.983 30.465 135.283 37.395C141.673 44.325 144.868 52.74 144.868 62.64C144.868 64.17 144.688 66.195 144.328 68.715H90.5984ZM90.4634 56.835H130.153C129.163 51.345 126.868 47.205 123.268 44.415C119.758 41.625 115.618 40.23 110.848 40.23C105.448 40.23 100.948 41.715 97.3484 44.685C93.7484 47.655 91.4534 51.705 90.4634 56.835Z" fill="black"/>
<path d="M200.826 28.755H216.756L190.431 96.255H173.556L147.231 28.755H163.161L182.061 80.055L200.826 28.755Z" fill="black"/>
<path d="M234.827 68.715C235.907 73.845 238.382 77.805 242.252 80.595C246.122 83.295 250.847 84.645 256.427 84.645C264.167 84.645 269.972 81.855 273.842 76.275L285.857 83.295C279.197 93.105 269.342 98.01 256.292 98.01C245.312 98.01 236.447 94.68 229.697 88.02C222.947 81.27 219.572 72.765 219.572 62.505C219.572 52.425 222.902 44.01 229.562 37.26C236.222 30.42 244.772 27 255.212 27C265.112 27 273.212 30.465 279.512 37.395C285.902 44.325 289.097 52.74 289.097 62.64C289.097 64.17 288.917 66.195 288.557 68.715H234.827ZM234.692 56.835H274.382C273.392 51.345 271.097 47.205 267.497 44.415C263.987 41.625 259.847 40.23 255.077 40.23C249.677 40.23 245.177 41.715 241.577 44.685C237.977 47.655 235.682 51.705 234.692 56.835Z" fill="black"/>
<path d="M316.506 40.095C320.196 31.725 327.126 27.54 337.296 27.54V43.335C331.716 42.975 326.856 44.325 322.716 47.385C318.576 50.355 316.506 55.305 316.506 62.235V96.255H301.926V28.755H316.506V40.095Z" fill="black"/>
<path d="M386.274 27C395.544 27 403.464 30.42 410.034 37.26C416.604 44.1 419.889 52.515 419.889 62.505C419.889 72.405 416.604 80.82 410.034 87.75C403.464 94.59 395.544 98.01 386.274 98.01C376.014 98.01 368.139 94.185 362.649 86.535V96.255H348.069V1.755H362.649V38.34C368.139 30.78 376.014 27 386.274 27ZM368.724 78.03C372.774 82.08 377.859 84.105 383.979 84.105C390.099 84.105 395.184 82.08 399.234 78.03C403.284 73.89 405.309 68.715 405.309 62.505C405.309 56.295 403.284 51.165 399.234 47.115C395.184 42.975 390.099 40.905 383.979 40.905C377.859 40.905 372.774 42.975 368.724 47.115C364.674 51.165 362.649 56.295 362.649 62.505C362.649 68.715 364.674 73.89 368.724 78.03Z" fill="black"/>
<path d="M446.873 15.93C445.073 17.73 442.913 18.63 440.393 18.63C437.873 18.63 435.668 17.73 433.778 15.93C431.978 14.04 431.078 11.835 431.078 9.315C431.078 6.795 431.978 4.635 433.778 2.835C435.578 0.945 437.783 0 440.393 0C443.003 0 445.208 0.945 447.008 2.835C448.808 4.635 449.708 6.795 449.708 9.315C449.708 11.835 448.763 14.04 446.873 15.93ZM433.103 96.255V28.755H447.683V96.255H433.103Z" fill="black"/>
<path d="M502.277 42.795H485.537V75.195C485.537 77.985 486.167 80.01 487.427 81.27C488.687 82.44 490.532 83.115 492.962 83.295C495.482 83.385 498.587 83.34 502.277 83.16V96.255C491.117 97.605 483.107 96.66 478.247 93.42C473.387 90.09 470.957 84.015 470.957 75.195V42.795H458.537V28.755H470.957V14.175L485.537 9.855V28.755H502.277V42.795Z" fill="black"/>
</svg>